# xmcd CD database file generated by OrangeCD 6.3
#
# Track frame offsets:
#	182
#	12492
#	27995
#	46442
#	64267
#	78562
#	100027
#	116205
#	135462
#	171422
#	187550
#	202395
#
# Disc length: 2938 seconds
#
# Revision: 3
# Processed by: cddbd v1.5.2PL0 Copyright (c) Steve Scherf et al.
# Submitted via: OrangeCD 6.3
#
DISCID=a80b780c
DTITLE=Johnny Copeland - Texas Party
DYEAR=1995
DGENRE=Texas Blues
TTITLE0=Texas Party
TTITLE1=Make My Home Where I Hang My Hat
TTITLE2=Don't Stop By The Creek, Son
TTITLE3=Same Thing
TTITLE4=Copeland Special
TTITLE5=I Was Born All Over
TTITLE6=Claim Jumper
TTITLE7=When The Rain Starts Fallin'
TTITLE8=Johnny Gone
TTITLE9=Houston
TTITLE10=Bozalimalamu
TTITLE11=Blues Ain't Nothin'
EXTD=
EXTT0=
EXTT1=
EXTT2=
EXTT3=
EXTT4=
EXTT5=
EXTT6=
EXTT7=
EXTT8=
EXTT9=
EXTT10=
EXTT11=
PLAYORDER=
